The Princess Bride 1987

Encoded  by Tequila-Bob a.k.a. bobnjeff a.k.a.LoNeWoLf

Source - NTSC BluRay Disc
 
http://photobucket.com/ThePrincessBride_TequilaBob

Release Date:25 September 1987 (USA)
 
http://www.imdb.com/title/tt0093779/

Rated 'PG' for Adventure Violence, Brief Language, and Mild Sexual

Genres:Adventure | Comedy | Family | Fantasy | Romance


Taglines for
The Princess Bride (1987)

Scaling the Cliffs of Insanity, Battling Rodents of Unusual Size, Facing torture in the Pit of Despair. - True love has never been a snap.
--------------------------------------------------------------------------------

It's as real as the feelings you feel
--------------------------------------------------------------------------------

Heroes. Giants. Villains. Wizards. True Love. - Not just your basic, average, everyday, ordinary, run-of-the-mill, ho-hum fairy tale.
--------------------------------------------------------------------------------

Heroes, giants, villains, wizards, true love
--------------------------------------------------------------------------------

She gets kidnapped. He gets killed. But it all ends up okay


Storyline
A kindly grandfather sits down with his grandson and reads him a bedtime story. The story is one that has been passed down through from father to son for generations. As the grandfather reads the story, the action comes alive. The story is a classic tale of love and adventure as the beautiful Buttercup is kidnapped and held against her will in order to marry the odious Prince Humperdinck, and Westley (her childhood beau, now returned as the Dread Pirate Roberts) attempts to save her. On the way he meets an accomplished swordsman and a huge, super strong giant, both of whom become his companions in his quest. They meet a few bad guys along the way to rescue Buttercup

Cast
Cast overview, first billed only: 
  Cary Elwes  ...  Westley  
  Mandy Patinkin  ...  Inigo Montoya  
  Chris Sarandon  ...  Prince Humperdinck  
  Christopher Guest  ...  Count Tyrone Rugen  
  Wallace Shawn  ...  Vizzini  
  André the Giant  ...  Fezzik (as Andre the Giant)  
  Fred Savage  ...  The Grandson  
  Robin Wright  ...  Buttercup / The Princess Bride  
  Peter Falk  ...  The Grandfather / Narrator  
  Peter Cook  ...  The Impressive Clergyman  
  Mel Smith  ...  The Albino  
  Carol Kane  ...  Valerie  
  Billy Crystal  ...  Miracle Max  
  Anne Dyson  ...  The Queen  
  Margery Mason  ...  The Ancient Booer

Format : Matroska 
File size : 7.96 GiB 
Duration : 1h 38mn 
Overall bit rate : 11.6 Mbps 
Encoded date : UTC 2010-10-31 04:21:27 
Writing application : mkvmerge v4.3.0 
Writing library : libebml v1.0.0 + libmatroska v1.0.0 

Video 
ID : 1 
Format : AVC 
Format/Info : Advanced Video Codec 
Format profile : High@L4.1 
Format settings, CABAC : Yes 
Format settings, ReFrames : 3 frames  
Codec ID : V_MPEG4/ISO/AVC 
Duration : 1h 38mn 
Bit rate mode : Variable 
Bit rate : 10.1 Mbps 
Maximum bit rate : 40.0 Mbps 
Width : 1 920 pixels 
Height : 1 040 pixels 
Display aspect ratio : 16:9 
Frame rate : 23.976 fps 
Bit depth : 8 bits 
Scan type : Progressive 
Bits/(Pixel*Frame) : 0.210 
Stream size : 6.77 GiB (85%) 
Language : English 

Audio 
ID : 2 
Format : DTS  
Duration : 1h 38mn 
Bit rate mode : Constant 
Bit rate : 1 510 Kbps 
Channel(s) : 6 channels 
Channel positions : Front: L C R, Side: L R, LFE 
Sampling rate : 48.0 KHz 
Bit depth : 24 bits 
Video delay : 10ms 
Stream size : 1.04 GiB (13%) 
Title : 3/2+1 
Language : English 

Text #1 
Language : English 

Text #2 
Language : Spanish 

Menu 27 Chapters

[img]http://torrent-stats.info/7871/7b341f6f.png[/img]

 
http://photobucket.com/ThePrincessBride_TequilaBob